<svg preserveAspectRatio="none" width="100%" height="100%" overflow="visible" style="display: block;" viewBox="0 0 44 21" fill="none" xmlns="http://www.w3.org/2000/svg">
<g id="&#231;&#188;&#150;&#231;&#187;&#132; 2">
<path id="Fill 1" fill-rule="evenodd" clip-rule="evenodd" d="M12.3786 9.35465C14.2972 12.3739 17.1521 14.7295 20.9662 16.9252L19.6644 19.1209C16.0787 16.8338 13.4978 14.5237 11.5793 11.7106V20.7449H9.34111V11.7333C7.35404 14.5695 4.84174 16.8795 1.34738 19.2584L0 17.1083C3.90543 14.7295 6.60032 12.3509 8.49602 9.35465H1.14184V7.06739H9.34111V3.72814C6.76025 4.00262 4.29369 4.20832 2.4895 4.29995L2.1926 2.05851C6.5091 1.87552 13.4978 1.16653 17.7002 0.365901L18.2254 2.65302C16.4212 2.92765 14.0459 3.22498 11.5793 3.49947V7.06739H19.8015V9.35465H12.3786Z" fill="var(--fill-0, white)"/>
<path id="Fill 3" fill-rule="evenodd" clip-rule="evenodd" d="M43.7032 9.92641H32.649V7.82228H36.8744V5.03186H33.1744V3.01895H36.8744V0.0456784L38.9985 0.137174V3.01895H42.8812V5.03186H38.9985V7.82228H43.7032V9.92641ZM29.0634 10.3839H30.274V5.6722H29.0634V10.3839ZM26.0714 10.3839H27.2819V5.6722H26.0714V10.3839ZM43.9088 18.0689V20.0815H32.101V18.8465L31.3016 19.0982L31.1647 18.4576C29.3375 18.6407 24.4041 19.3726 23.5592 19.5555L23.3993 17.3827C23.8333 17.3827 25.5005 17.1312 27.2135 16.9481V12.511H24.3357V3.59091H27.2135V0L29.1548 0.0913568V3.59091H32.0782V12.511H29.1548V16.6967L30.6849 16.4679C30.4337 15.5529 30.2054 14.6608 29.9541 13.9975L31.7813 13.4943C32.1466 14.5923 32.6949 16.6507 33.0604 18.0689H36.8744V14.8669H33.1744V12.854H36.8744V10.6354L38.9985 10.7269V12.854H42.9039V14.8669H38.9985V18.0689H43.9088Z" fill="var(--fill-0, white)"/>
</g>
</svg>
