<svg preserveAspectRatio="none" width="100%" height="100%" overflow="visible" style="display: block;" viewBox="0 0 37 36" fill="none" xmlns="http://www.w3.org/2000/svg">
<path id="Fill 5" fill-rule="evenodd" clip-rule="evenodd" d="M0 36C0 36 7.60672 34.5087 8.74342 30.463C10.035 25.8653 10.2668 18.9806 10.0263 18.0972C9.78569 17.214 9.42941 15.7091 8.10192 14.7248C6.47697 13.5198 5.47781 10.1705 8.85035 9.38798C11.8919 8.68219 12.5669 11.9609 11.7999 13.5365C11.1908 14.7876 11.5797 18.6419 13.7006 19.1641C15.941 19.7159 18.3115 15.6887 18.6858 14.8854C19.1769 13.8319 17.6187 11.8422 18.8755 9.93626C20.0129 8.21162 21.6967 8.19575 22.7751 8.8631C24.2051 9.74798 24.8598 11.5932 23.8175 13.1188C22.7751 14.6445 21.1243 14.2991 20.3261 15.5874C19.5279 16.8758 17.32 19.8659 18.5732 21.8387C19.5128 23.3178 22.9324 22.8685 23.4637 22.2672C25.0356 20.4884 25.6479 19.6502 27.586 19.7836C29.5394 19.918 30.6986 22.3162 29.5103 24.1195C28.4486 25.7308 26.6238 25.565 25.1004 25.0029C23.5769 24.4408 20.1891 24.1566 18.0517 25.3017C15.6347 26.5968 13.875 28.6966 13.6344 31.0251C13.3939 33.3537 13.6922 34.9066 16.4408 35.6021C18.9042 36.2254 23.7229 35.5887 27.586 33.1129C32.0467 30.254 35.1556 25.8539 35.9249 20.2653C36.7296 14.4193 35.0088 6.66761 26.7841 2.11815C19.0997 -2.13258 6.76094 -0.152256 1.85885 9.57473C-0.388401 14.0337 0.114031 18.8002 0.147684 23.909C0.187317 29.9446 0 36 0 36" fill="var(--fill-0, white)"/>
</svg>
