<svg preserveAspectRatio="none" width="100%" height="100%" overflow="visible" style="display: block;" viewBox="0 0 20 20" fill="none" xmlns="http://www.w3.org/2000/svg">
<g id="&#231;&#188;&#150;&#231;&#187;&#132;-2">
<path id="&#232;&#183;&#175;&#229;&#190;&#132;" d="M10 0C4.47685 0 0 4.47685 0 10C0 15.5231 4.47685 20 10 20C15.5231 20 20 15.5231 20 10C20 4.47685 15.5231 0 10 0Z" fill="var(--fill-0, white)"/>
<g id="&#231;&#188;&#150;&#231;&#187;&#132;">
<path id="&#232;&#183;&#175;&#229;&#190;&#132;_2" d="M13.3357 15.0124C12.6458 15.7074 10.0636 15.0606 7.50678 12.5215C4.94743 9.98244 4.28286 7.40533 4.97279 6.71032C5.57141 6.10917 6.29686 5.05905 7.39771 6.41862C8.49856 7.7782 7.96336 8.16122 7.34444 8.78267C6.91324 9.21641 7.82131 10.3071 8.76744 11.2482C9.7161 12.1892 10.8119 13.0872 11.2431 12.6534C11.8595 12.032 12.2399 11.4917 13.6071 12.5824C14.9794 13.6756 13.9343 14.4087 13.3357 15.0124Z" fill="var(--fill-0, #4EADA3)"/>
<path id="&#232;&#183;&#175;&#229;&#190;&#132;_3" d="M9.65784 6.91559C9.85822 6.71521 10.1449 6.76086 10.1449 6.76086C10.8602 6.87247 11.6059 7.21997 12.1994 7.81352C12.793 8.40707 13.1405 9.15534 13.2521 9.86811C13.2521 9.86811 13.2978 10.1547 13.0974 10.3551C12.8919 10.5606 12.5368 10.5707 12.3187 10.3526C12.1893 10.2232 12.1639 10.0431 12.1639 10.0431C12.098 9.69055 11.9864 9.15788 11.4207 8.59223C10.8551 8.02659 10.3224 7.91498 9.96983 7.84903C9.96983 7.84903 9.78974 7.82113 9.66038 7.6943C9.44223 7.47616 9.45238 7.12105 9.65784 6.91559Z" fill="var(--fill-0, #4EADA3)"/>
<path id="&#232;&#183;&#175;&#229;&#190;&#132;_4" d="M15.253 10.5023C15.253 10.5023 15.2251 10.7204 15.0907 10.8523C14.8827 11.0603 14.5301 11.073 14.3095 10.8498C14.1116 10.6519 14.1623 10.3501 14.1623 10.3501C14.3069 9.39633 13.863 8.21938 12.8281 7.18194C11.7932 6.1445 10.6137 5.70315 9.66 5.84773C9.66 5.84773 9.35816 5.89846 9.16031 5.70061C8.93709 5.4774 8.94978 5.12736 9.15777 4.91936C9.29221 4.78492 9.50781 4.75702 9.50781 4.75702C10.3322 4.63781 11.9911 4.78746 13.6068 6.40323C15.2226 8.02153 15.3723 9.67788 15.253 10.5023Z" fill="var(--fill-0, #4EADA3)"/>
</g>
</g>
</svg>
