<svg preserveAspectRatio="none" width="100%" height="100%" overflow="visible" style="display: block;" viewBox="0 0 62 39" fill="none" xmlns="http://www.w3.org/2000/svg">
<path id="&#229;&#189;&#162;&#231;&#138;&#182;&#231;&#187;&#147;&#229;&#144;&#136;&#229;&#164;&#135;&#228;&#187;&#189; 7" opacity="0.451846" fill-rule="evenodd" clip-rule="evenodd" d="M3.46415 1.73208C3.46415 2.68867 2.68867 3.46415 1.73208 3.46415C0.775477 3.46415 0 2.68867 0 1.73208C0 0.775477 0.775477 0 1.73208 0C2.68867 0 3.46415 0.775477 3.46415 1.73208ZM1.73208 15.0113C2.68867 15.0113 3.46415 14.2358 3.46415 13.2792C3.46415 12.3226 2.68867 11.5472 1.73208 11.5472C0.775477 11.5472 0 12.3226 0 13.2792C0 14.2358 0.775477 15.0113 1.73208 15.0113ZM13.2792 15.0113C14.2358 15.0113 15.0113 14.2358 15.0113 13.2792C15.0113 12.3226 14.2358 11.5472 13.2792 11.5472C12.3226 11.5472 11.5472 12.3226 11.5472 13.2792C11.5472 14.2358 12.3226 15.0113 13.2792 15.0113ZM26.5585 13.2792C26.5585 14.2358 25.783 15.0113 24.8264 15.0113C23.8698 15.0113 23.0943 14.2358 23.0943 13.2792C23.0943 12.3226 23.8698 11.5472 24.8264 11.5472C25.783 11.5472 26.5585 12.3226 26.5585 13.2792ZM36.3736 15.0113C37.3302 15.0113 38.1057 14.2358 38.1057 13.2792C38.1057 12.3226 37.3302 11.5472 36.3736 11.5472C35.417 11.5472 34.6415 12.3226 34.6415 13.2792C34.6415 14.2358 35.417 15.0113 36.3736 15.0113ZM49.6528 13.2792C49.6528 14.2358 48.8774 15.0113 47.9208 15.0113C46.9642 15.0113 46.1887 14.2358 46.1887 13.2792C46.1887 12.3226 46.9642 11.5472 47.9208 11.5472C48.8774 11.5472 49.6528 12.3226 49.6528 13.2792ZM59.4679 15.0113C60.4245 15.0113 61.2 14.2358 61.2 13.2792C61.2 12.3226 60.4245 11.5472 59.4679 11.5472C58.5113 11.5472 57.7358 12.3226 57.7358 13.2792C57.7358 14.2358 58.5113 15.0113 59.4679 15.0113ZM3.46415 24.8264C3.46415 25.783 2.68867 26.5585 1.73208 26.5585C0.775477 26.5585 0 25.783 0 24.8264C0 23.8698 0.775477 23.0943 1.73208 23.0943C2.68867 23.0943 3.46415 23.8698 3.46415 24.8264ZM15.0113 24.8264C15.0113 25.783 14.2358 26.5585 13.2792 26.5585C12.3226 26.5585 11.5472 25.783 11.5472 24.8264C11.5472 23.8698 12.3226 23.0943 13.2792 23.0943C14.2358 23.0943 15.0113 23.8698 15.0113 24.8264ZM24.8264 26.5585C25.783 26.5585 26.5585 25.783 26.5585 24.8264C26.5585 23.8698 25.783 23.0943 24.8264 23.0943C23.8698 23.0943 23.0943 23.8698 23.0943 24.8264C23.0943 25.783 23.8698 26.5585 24.8264 26.5585ZM38.1057 24.8264C38.1057 25.783 37.3302 26.5585 36.3736 26.5585C35.417 26.5585 34.6415 25.783 34.6415 24.8264C34.6415 23.8698 35.417 23.0943 36.3736 23.0943C37.3302 23.0943 38.1057 23.8698 38.1057 24.8264ZM47.9208 26.5585C48.8774 26.5585 49.6528 25.783 49.6528 24.8264C49.6528 23.8698 48.8774 23.0943 47.9208 23.0943C46.9642 23.0943 46.1887 23.8698 46.1887 24.8264C46.1887 25.783 46.9642 26.5585 47.9208 26.5585ZM61.2 24.8264C61.2 25.783 60.4245 26.5585 59.4679 26.5585C58.5113 26.5585 57.7358 25.783 57.7358 24.8264C57.7358 23.8698 58.5113 23.0943 59.4679 23.0943C60.4245 23.0943 61.2 23.8698 61.2 24.8264ZM15.0113 1.73208C15.0113 2.68867 14.2358 3.46415 13.2792 3.46415C12.3226 3.46415 11.5472 2.68867 11.5472 1.73208C11.5472 0.775477 12.3226 0 13.2792 0C14.2358 0 15.0113 0.775477 15.0113 1.73208ZM3.46415 36.3736C3.46415 37.3302 2.68867 38.1057 1.73208 38.1057C0.775477 38.1057 0 37.3302 0 36.3736C0 35.417 0.775477 34.6415 1.73208 34.6415C2.68867 34.6415 3.46415 35.417 3.46415 36.3736ZM15.0113 36.3736C15.0113 37.3302 14.2358 38.1057 13.2792 38.1057C12.3226 38.1057 11.5472 37.3302 11.5472 36.3736C11.5472 35.417 12.3226 34.6415 13.2792 34.6415C14.2358 34.6415 15.0113 35.417 15.0113 36.3736ZM24.8264 38.1057C25.783 38.1057 26.5585 37.3302 26.5585 36.3736C26.5585 35.417 25.783 34.6415 24.8264 34.6415C23.8698 34.6415 23.0943 35.417 23.0943 36.3736C23.0943 37.3302 23.8698 38.1057 24.8264 38.1057ZM38.1057 36.3736C38.1057 37.3302 37.3302 38.1057 36.3736 38.1057C35.417 38.1057 34.6415 37.3302 34.6415 36.3736C34.6415 35.417 35.417 34.6415 36.3736 34.6415C37.3302 34.6415 38.1057 35.417 38.1057 36.3736ZM47.9208 38.1057C48.8774 38.1057 49.6528 37.3302 49.6528 36.3736C49.6528 35.417 48.8774 34.6415 47.9208 34.6415C46.9642 34.6415 46.1887 35.417 46.1887 36.3736C46.1887 37.3302 46.9642 38.1057 47.9208 38.1057ZM61.2 36.3736C61.2 37.3302 60.4245 38.1057 59.4679 38.1057C58.5113 38.1057 57.7358 37.3302 57.7358 36.3736C57.7358 35.417 58.5113 34.6415 59.4679 34.6415C60.4245 34.6415 61.2 35.417 61.2 36.3736ZM26.5585 1.73208C26.5585 2.68867 25.783 3.46415 24.8264 3.46415C23.8698 3.46415 23.0943 2.68867 23.0943 1.73208C23.0943 0.775477 23.8698 0 24.8264 0C25.783 0 26.5585 0.775477 26.5585 1.73208ZM36.3736 3.46415C37.3302 3.46415 38.1057 2.68867 38.1057 1.73208C38.1057 0.775477 37.3302 0 36.3736 0C35.417 0 34.6415 0.775477 34.6415 1.73208C34.6415 2.68867 35.417 3.46415 36.3736 3.46415ZM49.6528 1.73208C49.6528 2.68867 48.8774 3.46415 47.9208 3.46415C46.9642 3.46415 46.1887 2.68867 46.1887 1.73208C46.1887 0.775477 46.9642 0 47.9208 0C48.8774 0 49.6528 0.775477 49.6528 1.73208ZM59.4679 3.46415C60.4245 3.46415 61.2 2.68867 61.2 1.73208C61.2 0.775477 60.4245 0 59.4679 0C58.5113 0 57.7358 0.775477 57.7358 1.73208C57.7358 2.68867 58.5113 3.46415 59.4679 3.46415Z" fill="url(#paint0_linear_1008_487)"/>
<defs>
<linearGradient id="paint0_linear_1008_487" x1="76.5" y1="-2.0964" x2="22.8569" y2="-40.9034" gradientUnits="userSpaceOnUse">
<stop stop-color="#08F29E"/>
<stop offset="1" stop-color="#1FC3BC"/>
</linearGradient>
</defs>
</svg>
